<svg width="642" height="132" xmlns="http://www.w3.org/2000/svg">

 <g>
  <title>background</title>
  <rect fill="none" id="canvas_background" height="134" width="644" y="-1" x="-1"/>
 </g>
 <g>
  <title>Layer 1</title>
  <g stroke="null" id="svg_1">
   <path stroke="null" id="svg_2" d="m50.516726,73.955336c-5.399241,5.90747 -13.213933,9.312052 -21.493134,9.312052c-7.689001,0 -15.039182,-2.945538 -20.438424,-8.295595c-7.464943,-7.382971 -7.585169,-14.541884 -7.585169,-32.832633c0,-18.296215 0.120226,-25.455128 7.585169,-32.843563c5.399241,-5.344593 12.749423,-8.290131 20.438424,-8.290131c14.361545,0 25.38955,9.306587 27.919761,23.629878l-6.197105,0c-2.41545,-11.137301 -10.683721,-18.186918 -21.722656,-18.186918c-5.858286,0 -11.366824,2.164068 -15.492762,6.257218c-5.858286,5.792708 -6.322796,12.044461 -6.322796,29.433516c0,17.38359 0.459045,23.629878 6.317331,29.428051c4.125938,4.087685 9.639941,6.246288 15.492762,6.246288c6.443022,0 12.754888,-2.72148 17.011982,-7.836551c3.563062,-4.317207 4.940197,-9.093459 4.940197,-16.028315l0,-7.273674l-21.946714,0l0,-5.45389l28.149283,0l0,13.186609c0,8.410357 -1.836179,14.427123 -6.65615,19.547658" fill="#E30613"/>
   <path stroke="null" id="svg_3" d="m109.307251,7.136992l-24.127177,0l0,32.723337l24.127177,0c10.459664,0 18.028438,-5.224367 18.028438,-16.361669c0,-11.142766 -7.574239,-16.361669 -18.028438,-16.361669m17.919142,75.452758l-19.520334,-37.270067l-22.525985,0l0,37.270067l-6.19164,0l0,-80.901183l31.122145,0c13.328694,0 23.438609,7.607028 23.438609,21.700797c0,12.038997 -7.361111,19.886477 -18.837232,21.815558l19.749856,37.384828l-7.235421,0z" fill="#E30613"/>
   <path stroke="null" id="svg_4" d="m176.382441,9.863937l-17.110349,47.609505l34.226162,0l-17.115814,-47.609505zm26.192878,72.725813l-7.120659,-19.662419l-38.138973,0l-7.126124,19.662419l-6.65615,0l30.100224,-80.901183l5.514003,0l30.089294,80.901183l-6.661615,0z" fill="#E30613"/>
   <polygon stroke="null" id="svg_5" points="276.9842834472656,82.58975219726562 229.78466796875,12.257526397705078 229.78466796875,82.58975219726562 223.58209228515625,82.58975219726562 223.58209228515625,1.6885673999786377 229.78466796875,1.6885673999786377 276.9842834472656,71.79126739501953 276.9842834472656,1.6885673999786377 283.19781494140625,1.6885673999786377 283.19781494140625,82.58975219726562 " fill="#E30613"/>
   <path stroke="null" id="svg_6" d="m351.967081,13.388745c-4.705209,-4.770787 -11.028005,-6.246288 -17.569394,-6.246288l-19.766251,0l0,69.993404l19.766251,0c6.541389,0 12.864184,-1.475501 17.569394,-6.262683c6.541389,-6.585107 6.093273,-20.897468 6.093273,-29.876166c0,-8.978698 0.448115,-21.017694 -6.093273,-27.608266m4.366391,61.812569c-4.825435,4.765322 -11.94063,7.382971 -20.449353,7.382971l-27.444322,0l0,-80.901183l27.444322,0c8.514188,0 15.623918,2.617648 20.449353,7.382971c8.273736,8.186299 7.929453,21.023159 7.929453,31.936403c0,10.896849 0.344284,26.018004 -7.929453,34.198838" fill="#E30613"/>
   <polygon stroke="null" id="svg_7" points="383.2040100097656,82.58975219726562 383.2040100097656,1.6885673999786377 399.1776428222656,1.6885673999786377 399.1776428222656,68.50691223144531 436.2783203125,68.50691223144531 436.2783203125,82.58975219726562 " fill="#020203"/>
   <polygon stroke="null" id="svg_8" points="471.3023376464844,49.39643859863281 471.3023376464844,82.58975219726562 455.4488830566406,82.58975219726562 455.4488830566406,49.39643859863281 430.8681640625,1.683102309703827 448.2080078125,1.683102309703827 463.4821472167969,34.302608489990234 478.5323181152344,1.683102309703827 495.86669921875,1.683102309703827 " fill="#020203"/>
   <path stroke="null" id="svg_9" d="m542.268478,19.405511c-2.311619,-2.617648 -5.852821,-4.317207 -10.230141,-4.317207c-4.371855,0 -8.049679,1.705024 -10.344903,4.317207c-3.104017,3.410047 -3.907346,7.169843 -3.907346,22.728183s0.797864,19.318136 3.907346,22.722718c2.295224,2.612184 5.973047,4.322672 10.344903,4.322672c4.37732,0 7.918523,-1.710488 10.230141,-4.322672c3.087623,-3.404582 4.005712,-7.164378 4.005712,-22.722718s-0.912625,-19.318136 -4.005712,-22.728183m11.820404,55.00887c-5.73806,5.677947 -12.743958,8.853007 -22.050545,8.853007s-16.432711,-3.17506 -22.170771,-8.853007c-8.268271,-8.186299 -8.049679,-18.307144 -8.049679,-32.275222c0,-13.989937 -0.218593,-24.088923 8.049679,-32.269757c5.73806,-5.688877 12.864184,-8.869401 22.170771,-8.869401s16.312485,3.180525 22.050545,8.863937c8.273736,8.180834 8.158975,18.285285 8.158975,32.269757c0.005465,13.973543 0.114761,24.094388 -8.158975,32.280687" fill="#020203"/>
   <polygon stroke="null" id="svg_10" points="626.8966674804688,82.58975219726562 594.5011596679688,32.93640327453613 594.5011596679688,82.58975219726562 578.5439453125,82.58975219726562 578.5439453125,1.6885673999786377 592.7852783203125,1.6885673999786377 625.1697998046875,51.22168731689453 625.1697998046875,1.6885673999786377 641.1380004882812,1.6885673999786377 641.1380004882812,82.58975219726562 " fill="#020203"/>
   <path stroke="null" id="svg_11" d="m543.738515,108.121385l0.087437,0c1.005527,-1.677699 2.262435,-2.491958 4.186051,-2.491958c2.923678,0 5.88561,1.142147 5.88561,9.06067c0,4.503011 -0.14755,9.678195 -6.03316,9.678195c-1.726883,0 -3.000186,-0.754145 -4.005712,-2.169533l-0.114761,0l0,8.634414l-2.951002,0l0,-24.848533l2.951002,0l0,2.136744l-0.005465,0zm7.055082,6.568713c0,-2.71055 0,-6.672544 -3.727007,-6.672544c-3.645034,0 -3.328075,4.98938 -3.328075,7.743649c0,2.393591 0.15848,6.218964 3.437371,6.218964c3.180525,0 3.61771,-2.464633 3.61771,-7.290069"/>
   <path stroke="null" id="svg_12" d="m339.682167,121.40636l-0.076507,0c-0.89623,2.071166 -2.317083,2.956467 -4.590448,2.956467c-3.863627,0 -4.983915,-2.453704 -4.983915,-5.923864c0,-5.464819 5.421101,-5.710736 9.574363,-5.60144c0.076507,-2.393591 0.109296,-5.005774 -3.071228,-5.005774c-1.978265,0 -3.032975,1.327951 -2.847171,3.224243l-3.218778,0c0.153015,-4.038501 2.311619,-5.43203 6.186175,-5.43203c4.69428,0 5.918399,2.393591 5.918399,5.43203l0,8.672668c0,1.431783 0.142085,2.896354 0.360678,4.278953l-3.251567,0l0,-2.601254zm-6.683474,-2.754269c0,1.754207 0.863441,3.32261 2.847171,3.32261c1.80339,0 4.043966,-1.109358 3.759796,-6.934856c-2.814382,0.043719 -6.606966,-0.207663 -6.606966,3.612245"/>
   <path stroke="null" id="svg_13" d="m392.958689,124.013079l0,-12.498041c0,-1.82525 -0.502763,-3.497484 -2.885425,-3.497484c-0.90716,0 -2.136744,0.530087 -2.563,1.207725c-0.541017,0.89623 -0.688567,1.967335 -0.688567,2.644972l0,12.142828l-2.961932,0l0,-14.285037c0,-1.251444 -0.076507,-2.497422 -0.180339,-3.743401l3.142271,0l0,2.240576l0.076507,0c0.868906,-1.934546 2.41545,-2.601254 4.541265,-2.601254c1.672235,0 3.584921,0.666708 4.257094,2.317083c1.021921,-1.929081 2.677761,-2.317083 4.344531,-2.317083c1.918152,0 4.983915,0.420791 4.983915,4.67242l0,13.711231l-2.961932,0l0,-12.498041c0,-1.82525 -0.508228,-3.497484 -2.896354,-3.497484c-1.114823,0 -1.431783,0.032789 -2.229646,0.677638c-0.874371,0.715891 -1.016456,2.497422 -1.016456,3.17506l0,12.142828l-2.961932,0l0,0.005465z"/>
   <path stroke="null" id="svg_14" d="m426.605581,115.936077c0,5.038563 1.37167,6.03316 3.683288,6.03316c2.016518,0 3.071228,-1.601192 3.17506,-3.426442l3.251567,0c-0.038254,4.000248 -2.530211,5.820032 -6.35012,5.820032c-3.863627,0 -6.94032,-1.142147 -6.94032,-9.109854c0,-5.28448 0.606595,-9.639941 6.94032,-9.639941c5.191578,0 6.49767,2.825312 6.49767,8.7765l0,1.535614l-10.257466,0l0,0.01093zm7.10973,-2.213252c0,-5.246226 -1.475501,-5.891075 -3.645034,-5.891075c-1.885363,0 -3.431906,0.901695 -3.464695,5.891075l7.10973,0zm0.721356,-15.498227l-4.727069,5.033098l-2.41545,0l3.213314,-5.033098l3.929205,0z"/>
   <path stroke="null" id="svg_15" d="m456.886144,105.979176l0,-3.47016l2.961932,-1.317021l0,4.787182l3.972924,0l0,2.207787l-3.972924,0l0,11.0444c0,1.142147 0,2.612184 2.71055,2.612184c0.207663,0 0.677638,-0.081972 1.327951,-0.14755l0,2.251505c-0.972738,0.071043 -1.945476,0.289635 -2.923678,0.289635c-2.819847,0 -4.076755,-1.147612 -4.076755,-3.224243l0,-12.820466l-3.000186,0l0,-2.213252l3.000186,0z"/>
   <path stroke="null" id="svg_16" d="m485.975376,108.695191l0.071043,0c1.224119,-2.759734 2.743339,-3.071228 5.639693,-3.071228l0,3.032975c-0.262311,-0.043719 -0.551947,-0.076507 -0.797864,-0.114761c-0.256847,-0.032789 -0.508228,-0.071043 -0.792399,-0.071043c-3.289821,0 -4.120474,2.470098 -4.120474,4.891013l0,10.645468l-2.967397,0l0,-18.028438l2.967397,0l0,2.716015z"/>
   <path stroke="null" id="svg_17" d="m508.550544,115.252974c0,-5.27355 0.61206,-9.634476 6.934856,-9.634476s6.94032,4.360926 6.94032,9.634476c0,7.973171 -3.071228,9.109854 -6.94032,9.109854s-6.934856,-1.136682 -6.934856,-9.109854m10.765694,-1.240514c0,-4.923802 -1.557473,-6.000371 -3.830838,-6.000371s-3.819909,1.071105 -3.819909,6.000371c0,5.852821 0.75961,7.967706 3.819909,7.967706c3.076693,0 3.830838,-2.114885 3.830838,-7.967706"/>
   <path stroke="null" id="svg_18" d="m572.008024,115.252974c0,-5.27355 0.606595,-9.634476 6.934856,-9.634476c6.317331,0 6.934856,4.360926 6.934856,9.634476c0,7.973171 -3.071228,9.109854 -6.934856,9.109854s-6.934856,-1.136682 -6.934856,-9.109854m10.765694,-1.240514c0,-4.923802 -1.557473,-6.000371 -3.830838,-6.000371s-3.825373,1.071105 -3.825373,6.000371c0,5.852821 0.75961,7.967706 3.825373,7.967706c3.071228,0 3.830838,-2.114885 3.830838,-7.967706"/>
   <rect stroke="null" id="svg_19" height="25.788482" width="2.967397" y="98.224598" x="605.05925"/>
   <path stroke="null" id="svg_20" d="m629.885924,115.936077c0,5.038563 1.377134,6.038625 3.683288,6.038625c2.021983,0 3.071228,-1.606657 3.180525,-3.431906l3.246103,0c-0.032789,4.005712 -2.524746,5.820032 -6.35012,5.820032c-3.863627,0 -6.934856,-1.142147 -6.934856,-9.109854c0,-5.28448 0.60113,-9.634476 6.934856,-9.634476c5.197043,0 6.49767,2.814382 6.49767,8.771035l0,1.535614l-10.257466,0l0,0.01093zm7.104265,-2.213252c0,-5.246226 -1.475501,-5.891075 -3.645034,-5.891075c-1.879898,0 -3.426442,0.901695 -3.464695,5.891075l7.10973,0z"/>
   <rect stroke="null" id="svg_21" height="25.788482" width="2.961932" y="98.224598" x="310.057383"/>
  </g>
 </g>
</svg>