<svg xmlns="http://www.w3.org/2000/svg" width="246" height="245" viewBox="0 0 246 245">
    <g fill="none" fill-rule="nonzero">
        <path fill="#FF8C78" d="M211.03 82.427l-85.742-69.41a3.828 3.828 0 0 0-4.817 0L34.73 82.427a3.829 3.829 0 0 0-1.42 2.976v155.151h179.14V85.402a3.828 3.828 0 0 0-1.42-2.975z"/>
        <path fill="#DF7A6E" d="M142.98 27.338l-17.69-14.32a3.828 3.828 0 0 0-4.818 0L49.558 70.423 34.73 82.428a3.827 3.827 0 0 0-1.419 2.975v155.152a3.828 3.828 0 0 0 3.828 3.827h12.419V100.883l93.422-73.545z"/>
        <path fill="#D3D2D2" d="M245.733 95.258a3.827 3.827 0 0 0-1.436-2.554L129.975 2.88a11.456 11.456 0 0 0-14.19 0L1.463 92.704a3.829 3.829 0 0 0-.645 5.375l9.46 12.04a3.828 3.828 0 0 0 5.374.644l107.228-84.25 107.228 84.25a3.81 3.81 0 0 0 2.363.818 3.82 3.82 0 0 0 3.012-1.463l9.46-12.04a3.828 3.828 0 0 0 .79-2.82z"/>
        <path fill="#BDBCBC" d="M102.467 167.059h40.829v73.493h-40.829z"/>
        <path fill="#A7A6A6" d="M102.467 167.059h12.249v73.493h-12.249z"/>
        <path fill="#E9E9E9" d="M147.123 167.061a3.828 3.828 0 0 0-3.828-3.828h-40.83a3.828 3.828 0 0 0-3.827 3.828v72.472h48.485v-72.472zm-7.656 69.665h-33.173V170.89h33.173v65.837z"/>
        <path fill="#C4DF64" d="M24.89 200.235c-11.116 0-20.16 9.044-20.16 20.16 0 11.115 9.044 20.159 20.16 20.159s20.16-9.044 20.16-20.16c0-11.115-9.044-20.16-20.16-20.16z"/>
        <path fill="#96CA62" d="M31.27 234.174c-11.116 0-20.16-9.043-20.16-20.16 0-3.927 1.133-7.593 3.084-10.696-5.679 3.57-9.464 9.888-9.464 17.076 0 11.116 9.044 20.16 20.16 20.16 7.188 0 13.506-3.785 17.076-9.463a20.033 20.033 0 0 1-10.696 3.083z"/>
        <path fill="#C4DF64" d="M69.802 200.235c-11.116 0-20.16 9.044-20.16 20.16 0 11.115 9.044 20.159 20.16 20.159s20.16-9.044 20.16-20.16c0-11.115-9.044-20.16-20.16-20.16z"/>
        <path fill="#96CA62" d="M75.672 234.685c-11.116 0-20.16-9.044-20.16-20.16 0-4.059 1.21-7.84 3.283-11.006-5.505 3.603-9.152 9.82-9.152 16.876 0 11.116 9.043 20.16 20.16 20.16 7.056 0 13.273-3.648 16.875-9.153a20.037 20.037 0 0 1-11.006 3.283z"/>
        <path fill="#C4DF64" d="M175.959 200.235c-11.116 0-20.16 9.044-20.16 20.16 0 11.115 9.044 20.159 20.16 20.159s20.16-9.044 20.16-20.16c0-11.115-9.044-20.16-20.16-20.16z"/>
        <path fill="#96CA62" d="M180.243 234.348c-9.627-.858-17.379-8.61-18.238-18.239a20.086 20.086 0 0 1 3.093-12.686c-5.587 3.588-9.3 9.852-9.3 16.97 0 11.117 9.044 20.16 20.16 20.16 7.12 0 13.383-3.712 16.97-9.3a20.075 20.075 0 0 1-12.685 3.095z"/>
        <path fill="#C4DF64" d="M220.871 200.235c-11.116 0-20.16 9.044-20.16 20.16 0 11.115 9.044 20.159 20.16 20.159s20.16-9.044 20.16-20.16c0-11.115-9.044-20.16-20.16-20.16z"/>
        <path fill="#96CA62" d="M226.995 234.43c-11.115 0-20.16-9.044-20.16-20.16 0-3.994 1.173-7.716 3.184-10.852-5.591 3.587-9.307 9.854-9.307 16.976 0 11.116 9.043 20.16 20.159 20.16 7.122 0 13.39-3.716 16.976-9.308a20.035 20.035 0 0 1-10.852 3.184z"/>
        <path fill="#6DDAE1" d="M143.296 105.819h48.996v40.829h-48.996z"/>
        <g fill="#4FC4D4">
            <path d="M180.042 105.817l-36.747 36.746v4.083h21.095l27.9-27.9v-12.929zM143.295 105.817v23.136l23.137-23.136zM173.577 146.646h18.713v-18.713z"/>
        </g>
        <path fill="#E9E9E9" d="M192.29 101.989h-48.995a3.828 3.828 0 0 0-3.828 3.828v40.83a3.827 3.827 0 0 0 3.828 3.827h48.996a3.827 3.827 0 0 0 3.827-3.828v-40.829a3.828 3.828 0 0 0-3.828-3.828zm-45.167 7.655h16.842v33.174h-16.842v-33.174zm41.34 33.175H171.62v-33.174h16.842v33.174z"/>
        <path fill="#6DDAE1" d="M53.216 105.819h48.996v40.829H53.216z"/>
        <g fill="#4FC4D4">
            <path d="M90.217 105.817l-36.746 36.746v4.083h21.095l27.9-27.9v-12.929zM53.47 105.817v23.136l23.137-23.136zM83.752 146.646h18.714v-18.713z"/>
        </g>
        <path fill="#E9E9E9" d="M102.21 101.989H53.216a3.827 3.827 0 0 0-3.827 3.828v40.83a3.827 3.827 0 0 0 3.827 3.827h48.996a3.828 3.828 0 0 0 3.828-3.828v-40.829a3.828 3.828 0 0 0-3.828-3.828zm-45.167 7.655h16.842v33.174H57.043v-33.174zm41.34 33.175H81.54v-33.174h16.843v33.174z"/>
        <path fill="#4FC4D4" d="M106.55 52.741h32.664v32.664H106.55z"/>
        <path fill="#E9E9E9" d="M139.212 48.911H106.55a3.828 3.828 0 0 0-3.828 3.828v32.664a3.828 3.828 0 0 0 3.828 3.828h32.663a3.827 3.827 0 0 0 3.828-3.828V52.739a3.828 3.828 0 0 0-3.828-3.828zm-3.828 16.332h-8.676v-8.677h8.676v8.677zm-16.331-8.676v8.676h-8.677v-8.676h8.677zm-8.677 16.331h8.677v8.677h-8.677v-8.677zm16.332 8.677v-8.677h8.677v8.677h-8.677z"/>
        <g fill="#7B7979">
            <path d="M114.715 207.636a3.828 3.828 0 0 1-3.828-3.828v-4.083a3.828 3.828 0 1 1 7.656 0v4.083a3.828 3.828 0 0 1-3.828 3.828zM241.286 244.382H4.475a3.827 3.827 0 1 1 0-7.655h236.81a3.827 3.827 0 1 1 0 7.655z"/>
        </g>
    </g>
</svg>
