<svg xmlns="http://www.w3.org/2000/svg" xmlns:xlink="http://www.w3.org/1999/xlink" viewBox="0 0 10 30">
    <defs>
        <path id="a" d="M2.478 5.87v6.592c0 .683-.554 1.236-1.239 1.236-.686 0-1.239.552-1.239 1.234L.003 15 0 15.066c0 .684.553 1.237 1.238 1.237.687 0 1.24.554 1.24 1.236v6.591c0 3.238 2.639 5.87 5.885 5.87a1.235 1.235 0 1 0 0-2.47 3.407 3.407 0 0 1-3.408-3.4v-6.592c0-.981-.386-1.873-1.013-2.538a3.688 3.688 0 0 0 1.013-2.54V5.869A3.405 3.405 0 0 1 8.363 2.47c.684 0 1.237-.552 1.237-1.234A1.233 1.233 0 0 0 8.364 0C5.118 0 2.478 2.632 2.478 5.87z"/>
        <path id="c" d="M.3 1.236c0 .683.554 1.234 1.238 1.234a3.403 3.403 0 0 1 3.407 3.398v6.594c0 .981.386 1.873 1.014 2.537a3.69 3.69 0 0 0-1.013 2.54v6.591a3.403 3.403 0 0 1-3.408 3.398 1.236 1.236 0 1 0 0 2.472c3.247 0 5.885-2.633 5.885-5.87v-6.592c0-.681.556-1.236 1.238-1.236.686 0 1.239-.552 1.239-1.237l-.002-.066.002-.07c0-.682-.553-1.234-1.239-1.234a1.236 1.236 0 0 1-1.237-1.235V5.869C7.423 2.632 4.784 0 1.537 0 .854 0 .3.552.3 1.236z"/>
    </defs>
    <g fill="none" fill-rule="evenodd">
        <g>
            <mask id="b" fill="#fff">
                <use xlink:href="#a"/>
            </mask>
            <path fill="#4BE79F" stroke="#4BE79F" stroke-width="17" d="M1 29h7.6V1H1v28z" mask="url(#b)"/>
        </g>
    </g>
</svg>
