<svg xmlns="http://www.w3.org/2000/svg" width="150" height="174" viewBox="0 0 150 174">
    <g fill="none" fill-rule="nonzero">
        <path fill="#B38A82" d="M54.165 135l-14.944-7.064C31.786 124.422 26.99 116.016 27 106.52L27.025 85l10.36.017-.025 21.521c-.005 4.425 2.23 8.343 5.696 9.981L58 123.583 54.165 135z"/>
        <path fill="#000" d="M27 102.432c.386.06.77.145 1.147.272A25.11 25.11 0 0 0 36.13 104c.622 0 1.236-.028 1.847-.073L38 85.017 27.022 85 27 102.432z" opacity=".1"/>
        <path fill="#B38A82" d="M87.847 129L84 117.703l23.385-10.817c3.15-1.457 5.187-4.952 5.187-8.903V76H123v21.983c0 8.965-4.62 16.893-11.768 20.2L87.847 129z"/>
        <path fill="#000" d="M123 93V75h-11v16.592c.458-.189.909-.403 1.35-.648 2.02-1.122 4.392-.963 6.336.32A18.753 18.753 0 0 0 123 93z" opacity=".1"/>
        <path fill="#B38A82" d="M91.297 74H56.703l-4.693 92.97c-.193 3.815 2.422 7.03 5.717 7.03h32.546c3.294 0 5.91-3.215 5.717-7.03L91.297 74z"/>
        <path fill="#000" d="M91.557 74h-34.24L56 100.22a24.372 24.372 0 0 0 2.275-1.209c1.909-1.15 4.235-.934 5.948.58 4.534 4.007 10.3 6.409 16.58 6.409 4.4 0 8.548-1.178 12.197-3.26L91.557 74z" opacity=".1"/>
        <g fill="#000" opacity=".1">
            <path d="M62.375 115.818c-.079 0-.158-.005-.238-.015-1.207-.15-2.08-1.399-1.95-2.791.26-2.79.825-5.396 1.279-7.49.11-.507.212-.979.3-1.408.278-1.363 1.461-2.208 2.642-1.887 1.181.32 1.913 1.685 1.635 3.049-.091.45-.199.944-.314 1.476-.421 1.943-.945 4.361-1.172 6.802-.122 1.3-1.074 2.264-2.182 2.264zM84.385 146.068c-1.146 0-2.111-1.026-2.19-2.364-.144-2.447-.399-4.384-.669-6.435-.255-1.942-.519-3.95-.732-6.61-.112-1.395.777-2.63 1.986-2.758 1.206-.129 2.278.897 2.39 2.291.201 2.513.455 4.446.701 6.316.284 2.158.552 4.196.708 6.853.082 1.397-.833 2.606-2.043 2.7-.05.005-.101.007-.151.007zM83.004 101.665c-1.161 0-2.131-1.05-2.192-2.404-.083-1.83-.503-4.366-.81-6.218-.25-1.502-.392-2.383-.428-3.012-.079-1.398.838-2.604 2.05-2.696 1.21-.093 2.256.967 2.335 2.364.02.347.2 1.433.359 2.392.35 2.107.784 4.729.882 6.907.063 1.398-.868 2.59-2.08 2.663a1.922 1.922 0 0 1-.116.004zM65.891 161.221c-1.213 0-2.197-1.135-2.197-2.535 0-.965.209-2.266.474-3.912.328-2.042.736-4.582.736-6.637 0-1.4.984-2.536 2.198-2.536 1.213 0 2.197 1.136 2.197 2.536 0 2.521-.45 5.316-.81 7.561-.188 1.167-.4 2.488-.4 2.988 0 1.4-.984 2.535-2.198 2.535z"/>
        </g>
        <path fill="#67C787" d="M103.747 18.981c-3.667-4.253-8.388-6.615-13.352-7.137-1.637-.172-3.151-1.125-4.094-2.686C82.97 3.644 77.227 0 70.696 0c-6.855 0-12.842 4.013-16.082 9.99-.885 1.634-2.39 2.69-4.041 2.908-12.896 1.7-22.811 11.95-22.811 24.347 0 2.67.46 5.239 1.312 7.645.695 1.966.621 4.204-.33 6.02-5.676 10.846-4.944 24.533 2.51 33.177 7.037 8.162 17.952 9.373 27.02 3.94 1.916-1.148 4.25-.933 5.968.577 4.55 4 10.335 6.396 16.637 6.396 14.647 0 26.52-12.929 26.52-28.878 0-3.151-.468-6.183-1.327-9.02-.549-1.813-.38-3.806.451-5.467 5.384-10.76 4.558-24.148-2.776-32.654z"/>
        <path fill="#000" d="M49.926 49.939c-7.6-9.673-6.694-29.76-3.265-36.939-11.444 2.821-19.877 12.446-19.877 23.9 0 2.685.465 5.27 1.323 7.69.7 1.978.626 4.23-.333 6.057-5.722 10.91-4.983 24.68 2.53 33.375 7.095 8.21 18.098 9.429 27.24 3.963 1.93-1.154 4.283-.938 6.015.581C68.145 92.589 73.978 95 80.33 95c5.417 0 10.457-1.753 14.669-4.762-25.662 4.388-41.16-23.144-42.99-35.227-.285-1.882-.973-3.658-2.084-5.072z" opacity=".1"/>
        <g fill="#8ADBA1">
            <path d="M61.917 51.803c-3.758-4.365-8.994-5.963-13.837-4.8-1.22.293-2.484.14-3.662-.332a22.67 22.67 0 0 0-8.448-1.631 22.822 22.822 0 0 0-11.03 2.847c-1.64.9-3.499 1.072-5.231.45-5.216-1.878-11.13-.419-15.26 4.377C-.56 58.53-1.338 67.398 2.11 74.167c.89 1.749 1.211 3.795.908 5.796-.78 5.14.538 10.624 3.957 14.594 4.38 5.087 10.902 6.172 16.197 3.256 1.618-.892 3.451-1.043 5.164-.432a22.649 22.649 0 0 0 7.635 1.323c2.867 0 5.617-.54 8.174-1.525 1.258-.486 2.602-.595 3.893-.248 4.499 1.21 9.417-.218 12.922-4.29 3.622-4.206 4.816-10.162 3.585-15.524a9.25 9.25 0 0 1 .428-5.441c2.59-6.522 1.574-14.499-3.055-19.873zM145.121 36.581c-4.376-5.083-10.626-6.728-16.381-5.001-1.773.532-3.647.176-5.185-.979-2.079-1.562-4.556-2.47-7.217-2.47-3.985 0-7.562 2.036-10 5.26-.998 1.316-2.39 2.138-3.886 2.38-8.525 1.374-15.04 8.822-15.04 17.809 0 4.88 1.922 9.305 5.043 12.553 1.27 1.32 2.038 3.18 2.112 5.156.14 3.725 1.433 7.402 3.883 10.246 4.124 4.79 10.28 5.777 15.244 2.966 1.928-1.092 4.193-.938 6.05.311a17.675 17.675 0 0 0 9.905 3.023c9.878 0 17.885-8.078 17.885-18.042 0-1.325-.143-2.615-.412-3.857-.39-1.79-.202-3.7.574-5.313 3.757-7.806 2.933-17.646-2.575-24.042z"/>
        </g>
        <path fill="#000" d="M139 85.478c-18.699 3.65-25.321-16.998-26.11-23.693-.1-.841-.39-1.63-.831-2.307-6.39-9.795-3.386-24.277-.799-29.478-1.702.898-3.212 2.202-4.436 3.809-.98 1.286-2.302 2.173-3.766 2.398C94.533 37.52 88 44.955 88 53.937c0 4.853 1.907 9.254 5.005 12.483 1.272 1.326 2.017 3.209 2.099 5.194.152 3.682 1.435 7.31 3.85 10.122 4.096 4.764 10.209 5.745 15.136 2.946 1.929-1.095 4.199-.892 6.06.352A17.521 17.521 0 0 0 129.922 88c3.317 0 6.42-.922 9.077-2.522z" opacity=".05"/>
        <path fill="#000" d="M27.252 89.95c-5.43-1.786-11.216-10.341-11.24-16.603-.003-1.023-.356-2.015-.99-2.733-6.113-6.93-3.459-18.465 1.367-23.575-4.267-.325-8.628 1.39-11.89 5.144-5.065 5.833-5.853 14.723-2.367 21.51a9.433 9.433 0 0 1 .93 5.735c-.812 5.176.516 10.709 3.99 14.709 4.44 5.112 11.056 6.194 16.416 3.245a6.293 6.293 0 0 1 5.185-.413A23.017 23.017 0 0 0 42 97.595c-6.869 1.12-10.848-3.02-12.503-5.783-.54-.901-1.33-1.562-2.245-1.863z" opacity=".1"/>
    </g>
</svg>
